<svg width="1226" height="1188" viewBox="0 0 1226 1188" fill="none" xmlns="http://www.w3.org/2000/svg">
<path d="M686.625 65.2188C686.625 101.238 657.426 130.438 621.406 130.438C585.387 130.438 556.188 101.238 556.188 65.2188C556.188 29.1995 585.387 0 621.406 0C657.426 0 686.625 29.1995 686.625 65.2188Z" fill="#FFA7A7"/>
<path d="M686.625 65.2188C686.625 101.238 657.426 130.438 621.406 130.438C585.387 130.438 556.188 101.238 556.188 65.2188C556.188 29.1995 585.387 0 621.406 0C657.426 0 686.625 29.1995 686.625 65.2188Z" fill="#AB5E18"/>
<path d="M98.8061 999.664C98.8061 1026.95 76.6876 1049.07 49.4031 1049.07C22.1185 1049.07 0 1026.95 0 999.664C0 972.38 22.1185 950.261 49.4031 950.261C76.6876 950.261 98.8061 972.38 98.8061 999.664Z" fill="#FFA7A7"/>
<path d="M98.8061 999.664C98.8061 1026.95 76.6876 1049.07 49.4031 1049.07C22.1185 1049.07 0 1026.95 0 999.664C0 972.38 22.1185 950.261 49.4031 950.261C76.6876 950.261 98.8061 972.38 98.8061 999.664Z" fill="#AB5E18"/>
<path d="M891.695 584.828C886.01 500.365 772.92 434.582 717.086 412.248V632.541C777.658 651.83 897.381 669.291 891.695 584.828Z" fill="#AB5E18"/>
<path d="M248.075 196.076C296.09 37.6294 393.13 -1.28517 506.151 8.02036C720.215 39.1475 700.512 253.693 712.515 341.719C722.118 412.14 787.962 572.386 830.641 667.081C1112.72 684.705 994.236 1022.24 1024.53 1022.24C1089.21 1022.24 1111.51 1058.48 1104.26 1092.91C1098.46 1120.45 939.176 1110.88 860.257 1102.65C899.729 1132.68 896.556 1182.37 860.257 1182.37C517.215 1182.37 576.172 1158.36 544.163 1158.36C512.153 1158.36 324.098 1260.39 120.037 1080.34C-84.0233 900.285 26.0091 672.217 62.0198 606.198C98.0304 540.178 188.057 394.135 248.075 196.076Z" fill="#CA841D"/>
<path d="M749.838 558.31C713.438 508.658 587.528 373.843 425.218 603.522C318.815 983.307 582.118 1046.6 769.676 986.924C957.234 927.244 807.245 636.616 749.838 558.31Z" fill="#AB5E18"/>
<path d="M544.163 1158.36C512.153 1158.36 324.098 1260.39 120.037 1080.34C170.742 984.977 325.556 586.395 578.173 794.253C805.836 784.566 789.813 976.863 783.571 1051.42L783.565 1051.5C782.077 1069.27 781.151 1080.34 784.234 1080.34C818.083 1080.34 843.167 1089.65 860.256 1102.65C899.729 1132.68 896.556 1182.37 860.256 1182.37C517.214 1182.37 576.172 1158.36 544.163 1158.36Z" fill="#CA841D"/>
<path d="M784.233 1080.34C818.083 1080.34 843.166 1089.65 860.256 1102.65C939.175 1110.88 1098.46 1120.45 1104.26 1092.91C1111.51 1058.48 1089.21 1022.24 1024.53 1022.24C994.235 1022.24 1112.72 684.704 830.64 667.08C861.509 736.507 952.822 931.809 783.571 1051.42L783.564 1051.5C782.076 1069.27 781.15 1080.34 784.233 1080.34Z" fill="#AB5E18"/>
<path d="M784.233 1080.34C781.145 1080.34 782.079 1069.24 783.571 1051.42C789.813 976.861 805.835 784.564 578.172 794.252" stroke="#AB5E18" stroke-width="7"/>
<path d="M480.314 291.027C480.317 255.585 519.997 210.672 543.636 205.799C613.864 191.319 643.078 292.827 614.232 303.864C564.205 331.466 480.311 342.685 480.314 291.027Z" fill="#AB5E18"/>
<path d="M588.902 234.884C588.902 238.366 588.216 241.813 586.884 245.03C585.552 248.247 583.599 251.169 581.137 253.631C578.675 256.093 575.752 258.046 572.536 259.379C569.319 260.711 565.871 261.397 562.39 261.397C558.908 261.397 555.46 260.711 552.244 259.379C549.027 258.046 546.104 256.093 543.642 253.631C541.18 251.169 539.227 248.247 537.895 245.03C536.563 241.813 535.877 238.366 535.877 234.884L562.39 234.884H588.902Z" fill="black"/>
<path fill-rule="evenodd" clip-rule="evenodd" d="M566.416 240.625L566.406 292.219L558.367 292.217L558.377 240.623L566.416 240.625Z" fill="black"/>
<path d="M603.536 283.52L579.463 290.122C584.284 308.853 604.804 331.612 618.248 316.959C626.655 307.796 617.093 290.916 603.536 283.52Z" fill="#9B2C2C"/>
<path fill-rule="evenodd" clip-rule="evenodd" d="M611.291 283.467L516.646 307.286L514.684 299.49L609.329 275.671L611.291 283.467Z" fill="black"/>
<path d="M456.908 258.915C456.908 276.899 442.329 291.478 424.345 291.478C406.36 291.478 391.781 276.899 391.781 258.915C391.781 240.93 406.36 226.351 424.345 226.351C442.329 226.351 456.908 240.93 456.908 258.915Z" fill="#FFA7A7"/>
<path d="M456.908 258.915C456.908 276.899 442.329 291.478 424.345 291.478C406.36 291.478 391.781 276.899 391.781 258.915C391.781 240.93 406.36 226.351 424.345 226.351C442.329 226.351 456.908 240.93 456.908 258.915Z" fill="#EE8C8C"/>
<path d="M456.908 258.915C456.908 276.899 442.329 291.478 424.345 291.478C406.36 291.478 391.781 276.899 391.781 258.915C391.781 240.93 406.36 226.351 424.345 226.351C442.329 226.351 456.908 240.93 456.908 258.915Z" fill="#E68A6D"/>
<path d="M456.908 258.915C456.908 276.899 442.329 291.478 424.345 291.478C406.36 291.478 391.781 276.899 391.781 258.915C391.781 240.93 406.36 226.351 424.345 226.351C442.329 226.351 456.908 240.93 456.908 258.915Z" fill="#E68A6D"/>
<path d="M690.384 243.107C690.384 261.091 675.805 275.671 657.821 275.671C639.837 275.671 625.258 261.091 625.258 243.107C625.258 225.123 639.837 210.544 657.821 210.544C675.805 210.544 690.384 225.123 690.384 243.107Z" fill="#FFA7A7"/>
<path d="M690.384 243.107C690.384 261.091 675.805 275.671 657.821 275.671C639.837 275.671 625.258 261.091 625.258 243.107C625.258 225.123 639.837 210.544 657.821 210.544C675.805 210.544 690.384 225.123 690.384 243.107Z" fill="#EE8C8C"/>
<path d="M690.384 243.107C690.384 261.091 675.805 275.671 657.821 275.671C639.837 275.671 625.258 261.091 625.258 243.107C625.258 225.123 639.837 210.544 657.821 210.544C675.805 210.544 690.384 225.123 690.384 243.107Z" fill="#E68A6D"/>
<path d="M690.384 243.107C690.384 261.091 675.805 275.671 657.821 275.671C639.837 275.671 625.258 261.091 625.258 243.107C625.258 225.123 639.837 210.544 657.821 210.544C675.805 210.544 690.384 225.123 690.384 243.107Z" fill="#E68A6D"/>
<circle cx="19.3158" cy="19.3158" r="19.3158" transform="matrix(-1 0 0 1 476.223 205.962)" fill="black"/>
<circle cx="19.3158" cy="19.3158" r="19.3158" transform="matrix(-1 0 0 1 644.572 192.714)" fill="black"/>
<path d="M322.92 158.174C362.819 162.015 398.277 132.783 402.118 92.8841C405.959 52.9848 376.728 17.5265 336.828 13.6858C296.929 9.84507 261.47 39.0764 257.63 78.9757C253.789 118.875 283.02 154.333 322.92 158.174Z" fill="#FFA7A7"/>
<path d="M322.92 158.174C362.819 162.015 398.277 132.783 402.118 92.8841C405.959 52.9848 376.728 17.5265 336.828 13.6858C296.929 9.84507 261.47 39.0764 257.63 78.9757C253.789 118.875 283.02 154.333 322.92 158.174Z" fill="#CA841D"/>
<path d="M322.92 158.174C362.819 162.015 398.277 132.783 402.118 92.8841C405.959 52.9848 376.728 17.5265 336.828 13.6858C296.929 9.84507 261.47 39.0764 257.63 78.9757C253.789 118.875 283.02 154.333 322.92 158.174Z" stroke="#AB5E18" stroke-width="11" stroke-linejoin="round"/>
<path d="M326.027 125.917C348.112 128.043 367.739 111.863 369.865 89.7774C371.991 67.6921 355.811 48.0651 333.725 45.9392C311.64 43.8132 292.013 59.9935 289.887 82.0788C287.761 104.164 303.941 123.791 326.027 125.917Z" fill="#FFA7A7"/>
<path d="M326.027 125.917C348.112 128.043 367.739 111.863 369.865 89.7774C371.991 67.6921 355.811 48.0651 333.725 45.9392C311.64 43.8132 292.013 59.9935 289.887 82.0788C287.761 104.164 303.941 123.791 326.027 125.917Z" fill="#FAB7B7"/>
<ellipse cx="104.837" cy="48.3378" rx="104.837" ry="48.3378" transform="matrix(-0.765659 0.643247 0.643247 0.765659 425.076 25.991)" fill="#CA841D"/>
<path d="M486.493 586.824C400.631 595.555 394.149 537.003 385.659 503.653C373.937 436.132 119.248 439.562 206.476 661.007C218.118 701.027 261.352 742.564 281.969 755.601C311.628 774.355 388.751 818.906 510.268 755.601C603.407 796.349 646.649 728.838 643.064 690.112C638.22 637.793 572.355 578.092 486.493 586.824Z" fill="#CA841D"/>
<path d="M385.66 503.653C394.15 537.003 400.632 595.555 486.494 586.824C572.356 578.092 638.221 637.793 643.064 690.112C646.649 728.838 603.408 796.349 510.269 755.601C388.751 818.906 311.629 774.356 281.97 755.601C261.353 742.564 218.119 701.027 206.477 661.007" stroke="#AB5E18" stroke-width="7"/>
<rect x="508.516" y="763.146" width="545.186" height="30.7532" rx="5" fill="#403D4F"/>
<path d="M674.72 752.824L829.698 465.41C830.92 463.145 833.286 461.732 835.86 461.732H1202.63C1207.93 461.732 1211.3 467.391 1208.79 472.055L1053.81 759.468C1052.59 761.734 1050.23 763.146 1047.65 763.146H680.882C675.583 763.146 672.205 757.487 674.72 752.824Z" fill="#3D3461"/>
<rect x="1190.18" y="478.382" width="21.0669" height="17.9868" transform="rotate(-38.8002 1190.18 478.382)" fill="#3D3461"/>
<rect x="676.967" y="759.688" width="21.0669" height="17.9868" transform="rotate(-38.8002 676.967 759.688)" fill="#3D3461"/>
<path d="M686.046 766.919L841.024 479.505C842.246 477.24 844.612 475.828 847.186 475.828H1213.95C1219.25 475.828 1222.63 481.486 1220.12 486.15L1065.14 773.563C1063.92 775.829 1061.55 777.241 1058.98 777.241H692.208C686.909 777.241 683.532 771.583 686.046 766.919Z" fill="#6B6097"/>
<path d="M961.133 634.113C960.174 627.708 963.002 612.554 975.353 615.503C985.49 617.924 994.72 633.206 978.531 638.35C965.58 642.465 962.343 637.543 961.133 634.113Z" fill="#FFDF8B"/>
<ellipse cx="954.071" cy="621.232" rx="4.38313" ry="6.16389" transform="rotate(30.2422 954.071 621.232)" fill="#FFDF8B"/>
<ellipse cx="961.643" cy="607.594" rx="4.38313" ry="6.16389" transform="rotate(30.2422 961.643 607.594)" fill="#FFDF8B"/>
<ellipse cx="974.274" cy="604.477" rx="4.38313" ry="6.16389" transform="rotate(30.2422 974.274 604.477)" fill="#FFDF8B"/>
<ellipse cx="985.401" cy="608.892" rx="4.38313" ry="6.16389" transform="rotate(30.2422 985.401 608.892)" fill="#FFDF8B"/>
</svg>
