<svg width="1320" height="970" viewBox="0 0 1320 970" fill="none" xmlns="http://www.w3.org/2000/svg">
<rect x="3.5" y="3.5" width="1313" height="963" rx="23.5" fill="#BED8FF" stroke="white" stroke-width="7"/>
<rect x="7" y="7" width="1306" height="122" fill="#F5F5F5"/>
<circle cx="83.1217" cy="69.4586" r="21.4703" fill="#FF0000"/>
<ellipse cx="150.218" cy="69.4586" rx="21.2263" ry="21.4703" fill="#F3AF2A"/>
<circle cx="217.312" cy="69.4586" r="21.4703" fill="#2F9351"/>
<mask id="mask0_88_773" style="mask-type:alpha" maskUnits="userSpaceOnUse" x="7" y="7" width="1306" height="956">
<rect x="10.5" y="10.5" width="1299" height="949" rx="26.5" fill="#9EBEEE" stroke="white" stroke-width="7"/>
</mask>
<g mask="url(#mask0_88_773)">
<path d="M590.421 327.645C590.421 368.87 557.001 402.29 515.776 402.29C474.551 402.29 441.131 368.87 441.131 327.645C441.131 286.42 474.551 253 515.776 253C557.001 253 590.421 286.42 590.421 327.645Z" fill="#FFA7A7"/>
<path d="M590.421 327.645C590.421 368.87 557.001 402.29 515.776 402.29C474.551 402.29 441.131 368.87 441.131 327.645C441.131 286.42 474.551 253 515.776 253C557.001 253 590.421 286.42 590.421 327.645Z" fill="#CD7434"/>
<path d="M879.456 327.645C879.456 368.87 846.036 402.29 804.811 402.29C763.586 402.29 730.166 368.87 730.166 327.645C730.166 286.42 763.586 253 804.811 253C846.036 253 879.456 286.42 879.456 327.645Z" fill="#FFA7A7"/>
<path d="M879.456 327.645C879.456 368.87 846.036 402.29 804.811 402.29C763.586 402.29 730.166 368.87 730.166 327.645C730.166 286.42 763.586 253 804.811 253C846.036 253 879.456 286.42 879.456 327.645Z" fill="#CD7434"/>
<path d="M557.094 327.644C557.094 350.464 538.595 368.962 515.776 368.962C492.957 368.962 474.458 350.464 474.458 327.644C474.458 304.825 492.957 286.327 515.776 286.327C538.595 286.327 557.094 304.825 557.094 327.644Z" fill="#FFA7A7"/>
<path d="M557.094 327.644C557.094 350.464 538.595 368.962 515.776 368.962C492.957 368.962 474.458 350.464 474.458 327.644C474.458 304.825 492.957 286.327 515.776 286.327C538.595 286.327 557.094 304.825 557.094 327.644Z" fill="#FAB7B7"/>
<path d="M846.129 327.644C846.129 350.464 827.63 368.962 804.811 368.962C781.992 368.962 763.493 350.464 763.493 327.644C763.493 304.825 781.992 286.327 804.811 286.327C827.63 286.327 846.129 304.825 846.129 327.644Z" fill="#FFA7A7"/>
<path d="M846.129 327.644C846.129 350.464 827.63 368.962 804.811 368.962C781.992 368.962 763.493 350.464 763.493 327.644C763.493 304.825 781.992 286.327 804.811 286.327C827.63 286.327 846.129 304.825 846.129 327.644Z" fill="#FAB7B7"/>
<path d="M1107.62 1077.78C1118.67 1077.78 1127.62 1068.82 1127.7 1057.77C1128.39 964.113 1133.07 910.614 1111.08 818.61C1056.81 665.482 988.188 632.846 944.756 557.565C901.502 482.595 906.775 440.017 832.121 345.999C831.515 345.236 830.821 344.484 830.108 343.821C764.691 282.945 720.986 267.084 659.901 267.084C598.478 267.084 551.379 283.121 489.067 344.831C397.947 455.31 420.784 503.7 375.045 557.565C334.516 605.294 239.824 703.12 212.225 818.61C190.238 910.614 191.844 964.113 192.144 1057.77C192.179 1068.82 201.133 1077.78 212.179 1077.78L659.901 1077.78H1107.62Z" fill="#CD7434"/>
<path d="M563.572 468.609C563.572 491.111 545.331 509.352 522.829 509.352C500.327 509.352 482.086 491.111 482.086 468.609C482.086 446.107 500.327 427.866 522.829 427.866C545.331 427.866 563.572 446.107 563.572 468.609Z" fill="#FFA7A7"/>
<path d="M563.572 468.609C563.572 491.111 545.331 509.352 522.829 509.352C500.327 509.352 482.086 491.111 482.086 468.609C482.086 446.107 500.327 427.866 522.829 427.866C545.331 427.866 563.572 446.107 563.572 468.609Z" fill="#EE8C8C"/>
<path d="M563.572 468.609C563.572 491.111 545.331 509.352 522.829 509.352C500.327 509.352 482.086 491.111 482.086 468.609C482.086 446.107 500.327 427.866 522.829 427.866C545.331 427.866 563.572 446.107 563.572 468.609Z" fill="#EE8C8C"/>
<path d="M836.562 468.609C836.562 491.111 818.321 509.352 795.819 509.352C773.317 509.352 755.076 491.111 755.076 468.609C755.076 446.107 773.317 427.866 795.819 427.866C818.321 427.866 836.562 446.107 836.562 468.609Z" fill="#FFA7A7"/>
<path d="M836.562 468.609C836.562 491.111 818.321 509.352 795.819 509.352C773.317 509.352 755.076 491.111 755.076 468.609C755.076 446.107 773.317 427.866 795.819 427.866C818.321 427.866 836.562 446.107 836.562 468.609Z" fill="#EE8C8C"/>
<path d="M836.562 468.609C836.562 491.111 818.321 509.352 795.819 509.352C773.317 509.352 755.076 491.111 755.076 468.609C755.076 446.107 773.317 427.866 795.819 427.866C818.321 427.866 836.562 446.107 836.562 468.609Z" fill="#EE8C8C"/>
<path d="M729.875 485.756C729.875 524.719 698.289 556.305 659.325 556.305C620.362 556.305 588.775 524.719 588.775 485.756C588.775 446.792 620.362 415.206 659.325 415.206C698.289 415.206 729.875 446.792 729.875 485.756Z" fill="#BC6618"/>
<path fill-rule="evenodd" clip-rule="evenodd" d="M612.291 483.158C614.64 483.158 616.498 485.084 617.005 487.378C617.251 488.49 617.594 489.581 618.032 490.638C619.014 493.01 620.454 495.165 622.269 496.98C624.084 498.795 626.239 500.235 628.611 501.217C630.982 502.199 633.524 502.705 636.091 502.705C638.658 502.705 641.2 502.199 643.571 501.217C645.943 500.235 648.097 498.795 649.913 496.98C651.728 495.165 653.167 493.01 654.15 490.638C654.588 489.581 654.931 488.49 655.177 487.378C655.684 485.084 657.542 483.158 659.891 483.158C662.24 483.158 664.177 485.073 663.822 487.395C663.482 489.621 662.874 491.803 662.008 493.894C660.598 497.297 658.532 500.39 655.927 502.995C653.322 505.599 650.23 507.666 646.826 509.076C643.423 510.485 639.775 511.211 636.091 511.211C632.407 511.211 628.759 510.485 625.356 509.076C621.952 507.666 618.859 505.599 616.255 502.995C613.65 500.39 611.583 497.297 610.173 493.894C609.308 491.803 608.7 489.621 608.36 487.395C608.005 485.073 609.942 483.158 612.291 483.158Z" fill="black"/>
<path d="M676.937 440.557C683.021 440.557 688.146 445.671 685.818 451.292C684.408 454.695 682.342 457.788 679.737 460.393C677.132 462.998 674.039 465.064 670.636 466.474C667.232 467.884 663.584 468.609 659.9 468.609C656.216 468.609 652.569 467.884 649.165 466.474C645.762 465.064 642.669 462.998 640.064 460.393C637.459 457.788 635.393 454.695 633.983 451.292C631.655 445.671 636.78 440.557 642.864 440.557L659.9 440.557H676.937Z" fill="black"/>
<path fill-rule="evenodd" clip-rule="evenodd" d="M673.722 454.378C675.866 452.235 673.979 449.063 670.948 449.063L648.853 449.063C645.822 449.063 643.935 452.235 646.079 454.378C647.894 456.193 650.049 457.633 652.42 458.616C654.792 459.598 657.334 460.103 659.9 460.103C662.467 460.103 665.009 459.598 667.381 458.616C669.752 457.633 671.907 456.193 673.722 454.378ZM633.168 449.063C631.721 444.514 635.717 440.557 640.49 440.557L679.311 440.557C684.084 440.557 688.08 444.514 686.633 449.063C686.393 449.816 686.121 450.559 685.818 451.292C684.408 454.695 682.342 457.788 679.737 460.393C677.132 462.998 674.039 465.064 670.636 466.474C667.232 467.884 663.584 468.609 659.9 468.609C656.216 468.609 652.569 467.884 649.165 466.474C645.762 465.064 642.669 462.998 640.064 460.393C637.459 457.788 635.393 454.695 633.983 451.292C633.68 450.559 633.408 449.816 633.168 449.063Z" fill="black"/>
<path fill-rule="evenodd" clip-rule="evenodd" d="M659.912 483.158C662.261 483.158 664.119 485.084 664.626 487.378C664.872 488.49 665.215 489.581 665.653 490.638C666.635 493.01 668.075 495.165 669.89 496.98C671.705 498.795 673.86 500.235 676.232 501.217C678.603 502.199 681.145 502.705 683.712 502.705C686.279 502.705 688.821 502.199 691.192 501.217C693.564 500.235 695.719 498.795 697.534 496.98C699.349 495.165 700.789 493.01 701.771 490.638C702.209 489.581 702.552 488.49 702.798 487.378C703.305 485.084 705.163 483.158 707.512 483.158C709.861 483.158 711.798 485.073 711.443 487.395C711.103 489.621 710.495 491.803 709.629 493.894C708.22 497.297 706.153 500.39 703.548 502.995C700.943 505.599 697.851 507.666 694.447 509.076C691.044 510.485 687.396 511.211 683.712 511.211C680.028 511.211 676.38 510.485 672.977 509.076C669.573 507.666 666.481 505.599 663.876 502.995C661.271 500.39 659.204 497.297 657.795 493.894C656.929 491.803 656.321 489.621 655.981 487.395C655.626 485.073 657.563 483.158 659.912 483.158Z" fill="black"/>
<path fill-rule="evenodd" clip-rule="evenodd" d="M659.889 453.594C662.238 453.595 664.142 455.499 664.142 457.848L664.136 488.884C664.135 491.233 662.231 493.137 659.882 493.137C657.533 493.136 655.629 491.232 655.63 488.883L655.636 457.846C655.636 455.498 657.541 453.594 659.889 453.594Z" fill="black"/>
<path d="M192.377 958.725C192.377 781.478 348.515 601.909 541.122 601.909H779.075C971.682 601.909 1127.82 781.478 1127.82 958.725V1044.92C1127.82 1222.17 971.682 1365.85 779.075 1365.85H541.122C348.515 1365.85 192.377 1222.17 192.377 1044.92V958.725Z" fill="#CD7434"/>
<path d="M313.087 992.042C313.087 811.48 497.551 657.144 667.441 657.144C837.332 657.144 1006.35 811.481 1006.35 992.042V1063.8C1006.35 1204.73 898.857 1318.98 766.254 1318.98H553.186C420.583 1318.98 313.087 1204.73 313.087 1063.8V992.042Z" fill="#E6C29D"/>
<path d="M313.087 992.042C313.087 811.48 497.551 657.144 667.441 657.144C837.332 657.144 1006.35 811.481 1006.35 992.042V1063.8C1006.35 1204.73 898.857 1318.98 766.254 1318.98H553.186C420.583 1318.98 313.087 1204.73 313.087 1063.8V992.042Z" fill="url(#paint0_linear_88_773)" fill-opacity="0.2"/>
<path d="M730.833 486.436C730.833 526.255 698.553 558.536 658.733 558.536C618.913 558.536 586.633 526.255 586.633 486.436C586.633 446.616 618.913 414.335 658.733 414.335C698.553 414.335 730.833 446.616 730.833 486.436Z" fill="#E5C29D"/>
<path fill-rule="evenodd" clip-rule="evenodd" d="M610.662 483.78C613.062 483.78 614.961 485.749 615.479 488.093C615.731 489.229 616.081 490.344 616.529 491.425C617.533 493.849 619.004 496.051 620.859 497.906C622.714 499.761 624.916 501.232 627.34 502.236C629.764 503.24 632.361 503.757 634.985 503.757C637.608 503.757 640.206 503.24 642.629 502.236C645.053 501.232 647.255 499.761 649.11 497.906C650.965 496.051 652.437 493.849 653.441 491.425C653.888 490.344 654.239 489.229 654.49 488.093C655.008 485.749 656.907 483.78 659.308 483.78C661.708 483.78 663.688 485.737 663.325 488.11C662.978 490.385 662.357 492.615 661.472 494.752C660.031 498.23 657.919 501.39 655.257 504.053C652.595 506.715 649.434 508.827 645.956 510.267C642.478 511.708 638.75 512.45 634.985 512.45C631.22 512.45 627.492 511.708 624.013 510.267C620.535 508.827 617.375 506.715 614.712 504.053C612.05 501.39 609.939 498.23 608.498 494.752C607.613 492.615 606.992 490.385 606.644 488.11C606.282 485.737 608.261 483.78 610.662 483.78Z" fill="black"/>
<path d="M676.735 440.244C682.952 440.244 688.19 445.47 685.811 451.215C684.37 454.693 682.258 457.854 679.596 460.516C676.934 463.178 673.773 465.29 670.295 466.731C666.817 468.171 663.089 468.913 659.324 468.913C655.559 468.913 651.831 468.171 648.352 466.731C644.874 465.29 641.714 463.178 639.051 460.516C636.389 457.854 634.277 454.693 632.837 451.215C630.457 445.47 635.695 440.244 641.913 440.244L659.324 440.244H676.735Z" fill="black"/>
<path fill-rule="evenodd" clip-rule="evenodd" d="M659.334 483.78C661.734 483.78 663.633 485.749 664.151 488.093C664.402 489.229 664.753 490.344 665.201 491.425C666.205 493.849 667.676 496.051 669.531 497.906C671.386 499.761 673.588 501.232 676.012 502.236C678.436 503.24 681.033 503.757 683.657 503.757C686.28 503.757 688.878 503.24 691.301 502.236C693.725 501.232 695.927 499.761 697.782 497.906C699.637 496.051 701.109 493.849 702.112 491.425C702.56 490.344 702.911 489.229 703.162 488.093C703.68 485.749 705.579 483.78 707.979 483.78C710.38 483.78 712.36 485.737 711.997 488.11C711.65 490.385 711.028 492.615 710.144 494.752C708.703 498.23 706.591 501.39 703.929 504.053C701.267 506.715 698.106 508.827 694.628 510.267C691.15 511.708 687.422 512.45 683.657 512.45C679.892 512.45 676.164 511.708 672.685 510.267C669.207 508.827 666.047 506.715 663.384 504.053C660.722 501.39 658.61 498.23 657.17 494.752C656.285 492.615 655.664 490.385 655.316 488.11C654.954 485.737 656.933 483.78 659.334 483.78Z" fill="black"/>
<path fill-rule="evenodd" clip-rule="evenodd" d="M659.307 453.565C661.708 453.566 663.653 455.512 663.653 457.913L663.647 489.631C663.646 492.032 661.7 493.977 659.3 493.977C656.899 493.976 654.953 492.03 654.954 489.63L654.96 457.911C654.96 455.511 656.907 453.565 659.307 453.565Z" fill="black"/>
<path d="M572.767 415.32C572.767 429.727 561.087 441.407 546.68 441.407C532.273 441.407 520.594 429.727 520.594 415.32C520.594 400.913 532.273 389.234 546.68 389.234C561.087 389.234 572.767 400.913 572.767 415.32Z" fill="black"/>
<path d="M799.2 415.32C799.2 429.727 787.521 441.407 773.114 441.407C758.707 441.407 747.027 429.727 747.027 415.32C747.027 400.913 758.707 389.234 773.114 389.234C787.521 389.234 799.2 400.913 799.2 415.32Z" fill="black"/>
</g>
<defs>
<linearGradient id="paint0_linear_88_773" x1="659.72" y1="657.144" x2="659.72" y2="1318.98" gradientUnits="userSpaceOnUse">
<stop stop-color="white"/>
<stop offset="1" stop-color="#F5F5F5" stop-opacity="0"/>
</linearGradient>
</defs>
</svg>
