<svg width="884" height="1326" viewBox="0 0 884 1326" fill="none" xmlns="http://www.w3.org/2000/svg">
<path d="M300.906 1031.26L300.906 1325.47L589.524 1325.47L589.524 1031.26L300.906 1031.26Z" fill="#AB5E18"/>
<path d="M266.423 1227.59C236.704 1227.59 212.613 1251.68 212.613 1281.4L212.613 1291.47C212.613 1310.25 227.836 1325.47 246.613 1325.47L589.525 1325.47L589.525 1227.59L266.423 1227.59Z" fill="#AB5E18"/>
<path d="M432.794 249.245C432.794 277.904 409.562 301.136 380.903 301.136C352.244 301.136 329.012 277.904 329.012 249.245C329.012 220.586 352.244 197.354 380.903 197.354C409.562 197.354 432.794 220.586 432.794 249.245Z" fill="#FFA7A7"/>
<path d="M432.794 249.245C432.794 277.904 409.562 301.136 380.903 301.136C352.244 301.136 329.012 277.904 329.012 249.245C329.012 220.586 352.244 197.354 380.903 197.354C409.562 197.354 432.794 220.586 432.794 249.245Z" fill="#AB5E18"/>
<path d="M883.919 1024.9C883.919 1050.06 863.523 1070.46 838.362 1070.46C813.201 1070.46 792.805 1050.06 792.805 1024.9C792.805 999.739 813.201 979.342 838.362 979.342C863.523 979.342 883.919 999.739 883.919 1024.9Z" fill="#FFA7A7"/>
<path d="M883.919 1024.9C883.919 1050.06 863.523 1070.46 838.362 1070.46C813.201 1070.46 792.805 1050.06 792.805 1024.9C792.805 999.739 813.201 979.342 838.362 979.342C863.523 979.342 883.919 999.739 883.919 1024.9Z" fill="#CA841D"/>
<mask id="path-5-outside-1_148_651" maskUnits="userSpaceOnUse" x="480.363" y="1031.26" width="298" height="295" fill="black">
<rect fill="white" x="480.363" y="1031.26" width="298" height="295"/>
<path d="M489.363 1031.26L489.363 1325.47L777.981 1325.47L777.981 1031.26L489.363 1031.26Z"/>
</mask>
<path d="M489.363 1031.26L489.363 1325.47L777.981 1325.47L777.981 1031.26L489.363 1031.26Z" fill="#CA841D"/>
<path d="M498.363 1031.26L498.363 1325.47L480.363 1325.47L480.363 1031.26L498.363 1031.26Z" fill="#AB5E18" mask="url(#path-5-outside-1_148_651)"/>
<path d="M294.726 433.578C301.732 360.577 350.636 211.205 490.203 197.728C514.841 195.347 633.005 200.808 685.681 321.97C758.126 488.604 750.613 542.362 805.49 656.795C955.387 969.366 799.185 1077.96 734.025 1128.5C668.866 1179.04 538.547 1181.14 490.203 1176.93C441.859 1172.72 221.014 1152.8 164.261 984.33C107.508 815.865 225.362 637.843 244.279 608.361C259.413 584.776 284.216 482.012 294.726 433.578Z" fill="#CA841D"/>
<path d="M495.299 357.243C495.299 371.552 506.899 383.152 521.208 383.152C535.517 383.152 547.117 371.552 547.117 357.243C547.117 342.934 535.517 331.334 521.208 331.334C506.899 331.334 495.299 342.934 495.299 357.243Z" fill="#FFA7A7"/>
<path d="M495.299 357.243C495.299 371.552 506.899 383.152 521.208 383.152C535.517 383.152 547.117 371.552 547.117 357.243C547.117 342.934 535.517 331.334 521.208 331.334C506.899 331.334 495.299 342.934 495.299 357.243Z" fill="#EE8C8C"/>
<path d="M495.299 357.243C495.299 371.552 506.899 383.152 521.208 383.152C535.517 383.152 547.117 371.552 547.117 357.243C547.117 342.934 535.517 331.334 521.208 331.334C506.899 331.334 495.299 342.934 495.299 357.243Z" fill="#E68A6D"/>
<path d="M495.299 357.243C495.299 371.552 506.899 383.152 521.208 383.152C535.517 383.152 547.117 371.552 547.117 357.243C547.117 342.934 535.517 331.334 521.208 331.334C506.899 331.334 495.299 342.934 495.299 357.243Z" fill="#E68A6D"/>
<path d="M375.912 388.247C375.912 417.546 399.663 441.298 428.963 441.298C458.262 441.298 482.014 417.546 482.014 388.247C482.014 358.948 458.262 335.196 428.963 335.196C399.663 335.196 375.912 358.948 375.912 388.247Z" fill="#AB5E18"/>
<path fill-rule="evenodd" clip-rule="evenodd" d="M452.51 386.075C452.51 388.005 452.13 389.917 451.391 391.7C450.653 393.483 449.57 395.104 448.205 396.469C446.84 397.834 445.22 398.916 443.436 399.655C441.653 400.394 439.742 400.774 437.812 400.774C435.881 400.774 433.97 400.394 432.187 399.655C430.403 398.916 428.783 397.834 427.418 396.469C426.053 395.104 424.971 393.483 424.232 391.7C423.493 389.917 423.113 388.005 423.113 386.075H416.717C416.717 388.845 417.262 391.588 418.323 394.148C419.383 396.707 420.936 399.033 422.895 400.991C424.854 402.95 427.18 404.504 429.739 405.564C432.298 406.624 435.041 407.17 437.812 407.17C440.582 407.17 443.325 406.624 445.884 405.564C448.443 404.504 450.769 402.95 452.728 400.991C454.687 399.033 456.24 396.707 457.301 394.148C458.361 391.588 458.906 388.845 458.906 386.075H452.51Z" fill="black"/>
<path d="M398.807 354.041C398.807 356.811 399.352 359.554 400.412 362.114C401.472 364.673 403.026 366.998 404.985 368.957C406.944 370.916 409.269 372.47 411.829 373.53C414.388 374.59 417.131 375.136 419.901 375.136C422.672 375.136 425.415 374.59 427.974 373.53C430.533 372.47 432.859 370.916 434.818 368.957C436.776 366.998 438.33 364.673 439.39 362.114C440.45 359.554 440.996 356.811 440.996 354.041L419.901 354.041H398.807Z" fill="black"/>
<path fill-rule="evenodd" clip-rule="evenodd" d="M416.696 386.075C416.696 388.005 416.315 389.917 415.577 391.7C414.838 393.483 413.755 395.104 412.39 396.469C411.026 397.834 409.405 398.916 407.622 399.655C405.839 400.394 403.927 400.774 401.997 400.774C400.067 400.774 398.155 400.394 396.372 399.655C394.589 398.916 392.969 397.834 391.604 396.469C390.239 395.104 389.156 393.483 388.417 391.7C387.679 389.917 387.299 388.005 387.299 386.075H380.902C380.902 388.845 381.448 391.588 382.508 394.148C383.568 396.707 385.122 399.033 387.081 400.991C389.04 402.95 391.365 404.504 393.924 405.564C396.484 406.624 399.227 407.17 401.997 407.17C404.767 407.17 407.51 406.624 410.07 405.564C412.629 404.504 414.954 402.95 416.913 400.991C418.872 399.033 420.426 396.707 421.486 394.148C422.546 391.588 423.092 388.845 423.092 386.075H416.696Z" fill="black"/>
<path fill-rule="evenodd" clip-rule="evenodd" d="M416.715 363.845L416.721 393.579L423.117 393.578L423.111 363.844L416.715 363.845Z" fill="black"/>
<circle cx="367.837" cy="338.672" r="15.3686" fill="black"/>
<circle cx="495.298" cy="341.874" r="15.3686" fill="black"/>
<path d="M632.167 320.659C600.421 323.715 572.209 300.457 569.153 268.711C566.097 236.965 589.355 208.753 621.101 205.697C652.847 202.641 681.059 225.899 684.115 257.645C687.171 289.391 663.913 317.603 632.167 320.659Z" fill="#FFA7A7"/>
<path d="M632.167 320.659C600.421 323.715 572.209 300.457 569.153 268.711C566.097 236.965 589.355 208.753 621.101 205.697C652.847 202.641 681.059 225.899 684.115 257.645C687.171 289.391 663.913 317.603 632.167 320.659Z" fill="#CA841D"/>
<path d="M632.167 320.659C600.421 323.715 572.209 300.457 569.153 268.711C566.097 236.965 589.355 208.753 621.101 205.697C652.847 202.641 681.059 225.899 684.115 257.645C687.171 289.391 663.913 317.603 632.167 320.659Z" stroke="#AB5E18" stroke-width="11" stroke-linejoin="round"/>
<path d="M629.695 294.994C612.123 296.685 596.507 283.812 594.815 266.239C593.124 248.667 605.997 233.051 623.57 231.36C641.142 229.668 656.758 242.542 658.449 260.114C660.141 277.686 647.267 293.302 629.695 294.994Z" fill="#FFA7A7"/>
<path d="M629.695 294.994C612.123 296.685 596.507 283.812 594.815 266.239C593.124 248.667 605.997 233.051 623.57 231.36C641.142 229.668 656.758 242.542 658.449 260.114C660.141 277.686 647.267 293.302 629.695 294.994Z" fill="#FAB7B7"/>
<ellipse cx="590.014" cy="298.591" rx="83.4137" ry="38.4599" transform="rotate(40.0344 590.014 298.591)" fill="#CA841D"/>
<mask id="mask0_148_651" style="mask-type:alpha" maskUnits="userSpaceOnUse" x="352" y="323" width="32" height="32">
<circle cx="367.837" cy="338.672" r="15.3686" fill="black"/>
</mask>
<g mask="url(#mask0_148_651)">
<circle cx="356.859" cy="326.506" r="9.33582" fill="white"/>
<circle cx="375.913" cy="353.552" r="14.8799" fill="white"/>
</g>
<mask id="mask1_148_651" style="mask-type:alpha" maskUnits="userSpaceOnUse" x="479" y="326" width="32" height="32">
<circle cx="495.298" cy="341.874" r="15.3686" fill="black"/>
</mask>
<g mask="url(#mask1_148_651)">
<circle cx="484.115" cy="331.334" r="9.33582" fill="white"/>
<circle cx="501.409" cy="354.883" r="13.0085" fill="white"/>
</g>
<path d="M169.236 922.54C169.236 964.681 238.167 1133.67 412.076 1115.19C516.898 1104.06 606.347 996.239 606.348 901.494C606.349 677.384 469.607 589.451 400.426 579.486C314.417 567.097 254.45 638.04 212.656 729.226C160.366 843.314 169.236 880.399 169.236 922.54Z" fill="#AB5E18"/>
<path d="M454.88 1227.59C425.162 1227.59 401.07 1251.68 401.07 1281.4L401.07 1291.47C401.07 1310.25 416.293 1325.47 435.07 1325.47L777.982 1325.47L777.982 1227.59L454.88 1227.59Z" fill="#CA841D"/>
<path d="M560.113 658.087C568.034 656.511 583.915 654.108 615.053 608.344C675.249 599.443 747.625 677.923 747.625 723.461C747.625 768.999 695.314 821.5 630.693 829.184C548.467 838.963 472.942 801.23 451.058 786.747C429.732 772.635 412.237 757.58 402.475 728.297C385.584 677.622 429.215 615.217 489.006 636.851C512.201 645.244 540.07 662.074 560.113 658.087Z" fill="#CA841D"/>
<path d="M615.053 608.344C583.915 654.108 568.034 656.511 560.113 658.087C540.07 662.074 512.201 645.244 489.006 636.851C429.215 615.217 385.584 677.622 402.475 728.297C412.237 757.58 429.732 772.635 451.058 786.747C472.942 801.23 548.467 838.963 630.693 829.184C695.314 821.5 747.625 768.999 747.625 723.461" stroke="#AB5E18" stroke-width="7"/>
<path d="M158.874 801.249C49.804 786.237 158.873 585.409 259.8 571.005C254.755 590.894 243.355 613.204 234.572 624.118C251.266 622.964 283.577 632.044 281.887 664.711C280.054 700.146 214.301 808.878 158.874 801.249Z" fill="#CA841D"/>
<path d="M158.875 801.249C214.303 808.878 280.056 700.146 281.889 664.711C283.578 632.044 251.267 622.964 234.573 624.118C217.476 625.299 198.374 635.83 188.612 643.715" stroke="#AB5E18" stroke-width="7"/>
<path d="M173.483 282.144C178.312 277.718 190.529 253.014 139.559 227.528V232.818L134.6 229.51C128.499 282.987 140.958 292.402 163.649 288.667L166.083 281.17L173.483 282.144Z" fill="#F3A5A5"/>
<path d="M133.13 121.779C124.09 112.95 119.599 90.8072 166.053 71.916L164.504 77.9552L169.46 73.7743C175.56 127.251 155.61 116.591 142.965 128.302L140.629 120.222L133.13 121.779Z" fill="#FAB7B7"/>
<path d="M19.521 40.0322C40.9843 45.579 53.524 31.1093 53.5239 0C6.01643 4.8232 -5.80102 27.2508 2.39833 25.3215C8.95782 23.7781 10.4371 24.6784 10.3568 25.3215C6.25708 28.3762 2.35037 35.5948 19.521 40.0322Z" fill="#FAB7B7"/>
<path d="M228.634 289.277C207.171 294.824 194.631 280.354 194.631 249.245C242.138 254.068 237.557 272.637 245.756 274.567C247.892 275.069 241.558 278.269 241.638 278.912C245.738 281.967 245.804 284.84 228.634 289.277Z" fill="#FAB7B7"/>
</svg>
