<svg width="797" height="831" viewBox="0 0 797 831" fill="none" xmlns="http://www.w3.org/2000/svg">
<path d="M504.37 71.1535C504.37 99.8122 481.138 123.045 452.479 123.045C423.82 123.045 400.588 99.8122 400.588 71.1535C400.588 42.4947 423.82 19.2622 452.479 19.2622C481.138 19.2622 504.37 42.4947 504.37 71.1535Z" fill="#FFA7A7"/>
<path d="M504.37 71.1535C504.37 99.8122 481.138 123.045 452.479 123.045C423.82 123.045 400.588 99.8122 400.588 71.1535C400.588 42.4947 423.82 19.2622 452.479 19.2622C481.138 19.2622 504.37 42.4947 504.37 71.1535Z" fill="#AB5E18"/>
<rect x="388.539" y="641.809" width="388.095" height="144.249" fill="#AB5E18"/>
<path d="M510.593 236.861C510.593 236.861 517.318 364.379 328.56 364.379C211.248 364.379 93.8002 259.177 130.656 154.409C147.321 107.036 211.248 0 328.56 0C517.318 9.87792 510.593 236.861 510.593 236.861Z" fill="#CA841D"/>
<path d="M693.244 617.715C693.244 666.635 710.408 830.186 284.828 830.186C148.542 830.186 0 723.393 0 550.678C0 377.963 127.184 42.0645 263.471 42.0645C561.904 42.0645 475.358 179.257 546.484 307.889C642.285 481.147 693.244 568.795 693.244 617.715Z" fill="#CA841D"/>
<mask id="mask0_76_653" style="mask-type:alpha" maskUnits="userSpaceOnUse" x="0" y="42" width="694" height="789">
<path d="M693.245 617.715C693.245 666.635 710.41 830.186 284.83 830.186C148.544 830.186 0.00195312 723.393 0.00195312 550.678C0.00195312 377.963 127.186 42.0645 263.473 42.0645C561.906 42.0645 475.36 179.257 546.486 307.889C642.287 481.147 693.245 568.795 693.245 617.715Z" fill="#CA841D"/>
</mask>
<g mask="url(#mask0_76_653)">
<path d="M547.778 834.686H552.278V830.186V675.809C552.278 654.546 535.041 637.309 513.778 637.309H505.182C472.979 637.309 446.873 663.415 446.873 695.618V830.186V834.686H451.373H547.778Z" fill="#CA841D" stroke="#AB5E18" stroke-width="9"/>
</g>
<path d="M647.744 662.973C647.744 697.493 649.928 786.821 437.323 786.821C369.238 786.821 297.113 719.826 297.113 630.887C297.113 452.89 361.574 396.42 429.039 388.257C512.913 378.109 563.327 445.648 598.859 511.886C646.718 601.104 647.744 628.452 647.744 662.973Z" fill="#AB5E18"/>
<path d="M310.611 65.298C310.611 97.1906 284.756 123.045 252.864 123.045C220.971 123.045 195.117 97.1906 195.117 65.298C195.117 33.4053 220.971 7.55127 252.864 7.55127C284.756 7.55127 310.611 33.4053 310.611 65.298Z" fill="#FFA7A7"/>
<path d="M310.611 65.298C310.611 97.1906 284.756 123.045 252.864 123.045C220.971 123.045 195.117 97.1906 195.117 65.298C195.117 33.4053 220.971 7.55127 252.864 7.55127C284.756 7.55127 310.611 33.4053 310.611 65.298Z" fill="#CA841D"/>
<path d="M310.611 65.298C310.611 97.1906 284.756 123.045 252.864 123.045C220.971 123.045 195.117 97.1906 195.117 65.298C195.117 33.4053 220.971 7.55127 252.864 7.55127C284.756 7.55127 310.611 33.4053 310.611 65.298Z" stroke="#AB5E18" stroke-width="11" stroke-linejoin="round"/>
<path d="M343.099 185.494C343.099 199.803 331.499 211.403 317.19 211.403C302.881 211.403 291.281 199.803 291.281 185.494C291.281 171.185 302.881 159.585 317.19 159.585C331.499 159.585 343.099 171.185 343.099 185.494Z" fill="#FFA7A7"/>
<path d="M343.099 185.494C343.099 199.803 331.499 211.403 317.19 211.403C302.881 211.403 291.281 199.803 291.281 185.494C291.281 171.185 302.881 159.585 317.19 159.585C331.499 159.585 343.099 171.185 343.099 185.494Z" fill="#EE8C8C"/>
<path d="M343.099 185.494C343.099 199.803 331.499 211.403 317.19 211.403C302.881 211.403 291.281 199.803 291.281 185.494C291.281 171.185 302.881 159.585 317.19 159.585C331.499 159.585 343.099 171.185 343.099 185.494Z" fill="#E68A6D"/>
<path d="M343.099 185.494C343.099 199.803 331.499 211.403 317.19 211.403C302.881 211.403 291.281 199.803 291.281 185.494C291.281 171.185 302.881 159.585 317.19 159.585C331.499 159.585 343.099 171.185 343.099 185.494Z" fill="#E68A6D"/>
<path d="M284.829 65.2982C284.829 82.9515 270.518 97.2624 252.865 97.2624C235.211 97.2624 220.9 82.9515 220.9 65.2982C220.9 47.6448 235.211 33.334 252.865 33.334C270.518 33.334 284.829 47.6448 284.829 65.2982Z" fill="#FFA7A7"/>
<path d="M284.829 65.2982C284.829 82.9515 270.518 97.2624 252.865 97.2624C235.211 97.2624 220.9 82.9515 220.9 65.2982C220.9 47.6448 235.211 33.334 252.865 33.334C270.518 33.334 284.829 47.6448 284.829 65.2982Z" fill="#FAB7B7"/>
<path d="M462.487 216.498C462.487 245.797 438.735 269.549 409.436 269.549C380.136 269.549 356.385 245.797 356.385 216.498C356.385 187.198 380.136 163.447 409.436 163.447C438.735 163.447 462.487 187.198 462.487 216.498Z" fill="#AB5E18"/>
<path fill-rule="evenodd" clip-rule="evenodd" d="M385.89 214.326C385.89 216.256 386.271 218.168 387.009 219.951C387.748 221.734 388.831 223.355 390.195 224.72C391.56 226.084 393.181 227.167 394.964 227.906C396.747 228.645 398.659 229.025 400.589 229.025C402.519 229.025 404.43 228.645 406.214 227.906C407.997 227.167 409.617 226.084 410.982 224.72C412.347 223.355 413.43 221.734 414.169 219.951C414.907 218.168 415.287 216.256 415.287 214.326H421.684C421.684 217.096 421.138 219.839 420.078 222.399C419.018 224.958 417.464 227.284 415.505 229.242C413.546 231.201 411.221 232.755 408.661 233.815C406.102 234.875 403.359 235.421 400.589 235.421C397.819 235.421 395.076 234.875 392.516 233.815C389.957 232.755 387.631 231.201 385.673 229.242C383.714 227.284 382.16 224.958 381.1 222.399C380.04 219.839 379.494 217.096 379.494 214.326H385.89Z" fill="black"/>
<path d="M439.592 182.292C439.592 185.062 439.046 187.805 437.986 190.365C436.926 192.924 435.372 195.249 433.413 197.208C431.454 199.167 429.129 200.721 426.57 201.781C424.01 202.841 421.267 203.387 418.497 203.387C415.727 203.387 412.984 202.841 410.424 201.781C407.865 200.721 405.54 199.167 403.581 197.208C401.622 195.249 400.068 192.924 399.008 190.365C397.948 187.805 397.402 185.062 397.402 182.292L418.497 182.292H439.592Z" fill="black"/>
<path fill-rule="evenodd" clip-rule="evenodd" d="M421.703 214.326C421.703 216.256 422.083 218.168 422.822 219.951C423.56 221.734 424.643 223.355 426.008 224.72C427.373 226.084 428.993 227.167 430.776 227.906C432.56 228.645 434.471 229.025 436.401 229.025C438.332 229.025 440.243 228.645 442.026 227.906C443.81 227.167 445.43 226.084 446.795 224.72C448.16 223.355 449.242 221.734 449.981 219.951C450.72 218.168 451.1 216.256 451.1 214.326H457.496C457.496 217.096 456.95 219.839 455.89 222.399C454.83 224.958 453.276 227.284 451.318 229.242C449.359 231.201 447.033 232.755 444.474 233.815C441.915 234.875 439.172 235.421 436.401 235.421C433.631 235.421 430.888 234.875 428.329 233.815C425.769 232.755 423.444 231.201 421.485 229.242C419.526 227.284 417.972 224.958 416.912 222.399C415.852 219.839 415.307 217.096 415.307 214.326H421.703Z" fill="black"/>
<path fill-rule="evenodd" clip-rule="evenodd" d="M421.683 192.096L421.677 221.83L415.281 221.829L415.287 192.095L421.683 192.096Z" fill="black"/>
<path fill-rule="evenodd" clip-rule="evenodd" d="M360.309 173.843C360.58 171.918 360.47 169.958 359.984 168.076C359.499 166.193 358.647 164.425 357.477 162.871C356.308 161.318 354.844 160.01 353.17 159.023C351.495 158.035 349.642 157.387 347.717 157.115C345.792 156.844 343.832 156.954 341.95 157.44C340.067 157.926 338.299 158.778 336.746 159.947C335.192 161.116 333.884 162.58 332.897 164.254C331.909 165.929 331.261 167.782 330.99 169.707L321.269 168.336C321.721 165.134 322.799 162.053 324.441 159.268C326.084 156.483 328.258 154.048 330.842 152.104C333.425 150.159 336.366 148.743 339.497 147.935C342.628 147.127 345.887 146.943 349.088 147.395C352.29 147.847 355.371 148.924 358.157 150.567C360.942 152.209 363.376 154.384 365.32 156.968C367.265 159.551 368.682 162.492 369.49 165.623C370.298 168.753 370.481 172.013 370.029 175.214L360.309 173.843Z" fill="black"/>
<path fill-rule="evenodd" clip-rule="evenodd" d="M483.794 168.804C483.29 166.926 482.464 165.154 481.362 163.59C480.26 162.026 478.904 160.7 477.371 159.687C475.838 158.675 474.159 157.996 472.428 157.689C470.697 157.383 468.95 157.454 467.285 157.9C465.62 158.346 464.071 159.158 462.726 160.289C461.38 161.42 460.265 162.847 459.444 164.491C458.622 166.134 458.111 167.961 457.939 169.866C457.767 171.772 457.937 173.72 458.44 175.597L450.035 177.85C449.198 174.727 448.914 171.488 449.201 168.319C449.487 165.149 450.337 162.111 451.703 159.378C453.069 156.645 454.924 154.271 457.162 152.39C459.399 150.51 461.976 149.16 464.744 148.418C467.513 147.676 470.419 147.557 473.297 148.067C476.175 148.577 478.969 149.706 481.518 151.39C484.068 153.073 486.323 155.279 488.156 157.881C489.988 160.482 491.362 163.429 492.199 166.552L483.794 168.804Z" fill="black"/>
<ellipse cx="284.606" cy="105.14" rx="83.4137" ry="38.4599" transform="rotate(-44.4673 284.606 105.14)" fill="#CA841D"/>
<mask id="path-19-outside-1_76_653" maskUnits="userSpaceOnUse" x="297.115" y="676.938" width="251" height="154" fill="black">
<rect fill="white" x="297.115" y="676.938" width="251" height="154"/>
<path d="M297.115 685.938H547.778V830.187H297.115V685.938Z"/>
</mask>
<path d="M297.115 685.938H547.778V830.187H297.115V685.938Z" fill="#CA841D"/>
<path d="M297.115 694.938H547.778V676.938H297.115V694.938Z" fill="#AB5E18" mask="url(#path-19-outside-1_76_653)"/>
<path d="M451.373 695.618C451.373 665.9 475.464 641.809 505.182 641.809H513.778C532.556 641.809 547.778 657.031 547.778 675.809V830.186H451.373V695.618Z" fill="#CA841D"/>
<path d="M128.936 513.365C97.861 493.232 88.991 451.72 109.124 420.645C129.257 389.571 170.769 380.701 201.844 400.834L327.252 482.085C358.327 502.218 367.197 543.73 347.064 574.805C326.931 605.88 285.419 614.75 254.344 594.616L128.936 513.365Z" fill="#CD7434"/>
<path d="M128.936 513.365C97.861 493.232 88.991 451.72 109.124 420.645C129.257 389.571 170.769 380.701 201.844 400.834L327.252 482.085C358.327 502.218 367.197 543.73 347.064 574.805C326.931 605.88 285.419 614.75 254.344 594.616L128.936 513.365Z" fill="#CD7434"/>
<path d="M128.936 513.365C97.861 493.232 88.991 451.72 109.124 420.645C129.257 389.571 170.769 380.701 201.844 400.834L327.252 482.085C358.327 502.218 367.197 543.73 347.064 574.805C326.931 605.88 285.419 614.75 254.344 594.616L128.936 513.365Z" fill="#CD7434"/>
<path d="M128.936 513.365C97.861 493.232 88.991 451.72 109.124 420.645C129.257 389.571 170.769 380.701 201.844 400.834L327.252 482.085C358.327 502.218 367.197 543.73 347.064 574.805C326.931 605.88 285.419 614.75 254.344 594.616L128.936 513.365Z" fill="#CA841D"/>
<mask id="mask1_76_653" style="mask-type:alpha" maskUnits="userSpaceOnUse" x="98" y="390" width="260" height="216">
<path d="M201.844 400.834C170.769 380.701 129.257 389.571 109.124 420.646C88.9908 451.72 97.8608 493.233 128.936 513.366L254.344 594.617C285.419 614.75 326.931 605.88 347.064 574.805C367.197 543.73 358.327 502.218 327.252 482.085L201.844 400.834Z" fill="#703514"/>
<path d="M201.844 400.834C170.769 380.701 129.257 389.571 109.124 420.646C88.9908 451.72 97.8608 493.233 128.936 513.366L254.344 594.617C285.419 614.75 326.931 605.88 347.064 574.805C367.197 543.73 358.327 502.218 327.252 482.085L201.844 400.834Z" fill="#703514"/>
<path d="M201.844 400.834C170.769 380.701 129.257 389.571 109.124 420.646C88.9908 451.72 97.8608 493.233 128.936 513.366L254.344 594.617C285.419 614.75 326.931 605.88 347.064 574.805C367.197 543.73 358.327 502.218 327.252 482.085L201.844 400.834Z" fill="#703514"/>
<path d="M201.844 400.834C170.769 380.701 129.257 389.571 109.124 420.646C88.9908 451.72 97.8608 493.233 128.936 513.366L254.344 594.617C285.419 614.75 326.931 605.88 347.064 574.805C367.197 543.73 358.327 502.218 327.252 482.085L201.844 400.834Z" fill="#582508"/>
</mask>
<g mask="url(#mask1_76_653)">
<path fill-rule="evenodd" clip-rule="evenodd" d="M341.997 520.354C342.473 521.77 344.007 522.532 345.423 522.055L355.677 518.607C357.092 518.131 357.854 516.597 357.378 515.181C356.902 513.766 355.368 513.004 353.952 513.48L343.699 516.928C342.283 517.405 341.521 518.938 341.997 520.354Z" fill="#F59F9F"/>
<path fill-rule="evenodd" clip-rule="evenodd" d="M344.097 549.545C343.824 551.014 344.794 552.425 346.263 552.698L356.899 554.672C358.368 554.945 359.779 553.975 360.052 552.506C360.324 551.038 359.355 549.626 357.886 549.354L347.25 547.379C345.781 547.107 344.37 548.076 344.097 549.545Z" fill="#F59F9F"/>
<path fill-rule="evenodd" clip-rule="evenodd" d="M330.144 576.052C329.332 577.306 329.69 578.98 330.944 579.792L340.023 585.675C341.276 586.487 342.951 586.129 343.763 584.875C344.575 583.622 344.217 581.947 342.964 581.135L333.885 575.253C332.631 574.441 330.957 574.798 330.144 576.052Z" fill="#F59F9F"/>
</g>
<path d="M703.656 651.489C703.656 621.771 727.747 597.68 757.466 597.68H762.889C781.667 597.68 796.889 612.902 796.889 631.68V786.058H703.656V651.489Z" fill="#AB5E18"/>
</svg>
