<svg width="447" height="738" viewBox="0 0 447 738" fill="none" xmlns="http://www.w3.org/2000/svg">

<!-- semi colon lower bracket   -->
<path d="M398.354 655.395C398.354 651.529 395.22 648.395 391.354 648.395H388.005C385.305 648.395 383.955 646.895 383.955 644.045V594.995C383.955 585.995 377.655 579.695 368.655 579.695H356.755C352.889 579.695 349.755 582.829 349.755 586.695V590.095C349.755 593.961 352.889 597.095 356.755 597.095H361.005C363.705 597.095 365.055 598.595 365.055 601.595V645.545C365.055 652.295 369.705 657.545 376.755 657.545H378.105C378.684 657.545 379.155 658.015 379.155 658.595V658.595C379.155 659.175 378.684 659.645 378.105 659.645H376.755C369.705 659.645 365.055 664.895 365.055 671.645V715.595C365.055 718.595 363.705 720.095 361.005 720.095H356.755C352.889 720.095 349.755 723.229 349.755 727.095V730.495C349.755 734.361 352.889 737.495 356.755 737.495H368.655C377.655 737.495 383.955 731.195 383.955 722.195V673.145C383.955 670.295 385.305 668.795 388.005 668.795H391.354C395.22 668.795 398.354 665.661 398.354 661.795V655.395Z" fill="#DF5F17"/>
<path d="M282.013 633.096C282.013 641.496 288.163 647.345 296.263 647.345C304.363 647.345 310.513 641.496 310.513 633.096C310.513 624.696 304.363 618.846 296.263 618.846C288.163 618.846 282.013 624.696 282.013 633.096ZM282.013 683.345C282.013 691.295 288.163 696.695 295.963 696.695V696.695C297.422 696.695 298.813 697.808 298.813 699.267V701.195C298.813 704.045 297.613 705.395 294.463 705.395H288.013C285.196 705.395 282.913 707.678 282.913 710.495V710.495C282.913 713.312 285.196 715.595 288.013 715.595H297.163C304.813 715.595 310.513 709.745 310.513 702.095V683.045C310.513 674.795 304.363 668.945 296.263 668.945C288.163 668.945 282.013 674.795 282.013 683.345Z" fill="#76ADFF"/>
</svg>
