<svg width="447" height="738" viewBox="0 0 447 738" fill="none" xmlns="http://www.w3.org/2000/svg">
<!--triple dot and upper bracket  -->
<path d="M66.7784 325.052C66.7784 333.452 72.9284 339.302 81.0284 339.302C89.1284 339.302 95.2784 333.452 95.2784 325.052C95.2784 316.652 89.1284 310.802 81.0284 310.802C72.9284 310.802 66.7784 316.652 66.7784 325.052Z" fill="#F5B40D"/>
<path d="M109.112 325.052C109.112 333.452 115.262 339.302 123.362 339.302C131.462 339.302 137.612 333.452 137.612 325.052C137.612 316.652 131.462 310.802 123.362 310.802C115.262 310.802 109.112 316.652 109.112 325.052Z" fill="#F5B40D"/>
<path d="M151.446 325.052C151.446 333.452 157.596 339.302 165.696 339.302C173.796 339.302 179.946 333.452 179.946 325.052C179.946 316.652 173.796 310.802 165.696 310.802C157.596 310.802 151.446 316.652 151.446 325.052Z" fill="#F5B40D"/>
<path d="M7 282.752C3.13401 282.752 0 285.886 0 289.752V296.152C0 300.018 3.13401 303.152 7 303.152H10.35C13.05 303.152 14.4 304.652 14.4 307.502V356.552C14.4 365.552 20.7 371.852 29.7 371.852H41.6C45.466 371.852 48.6 368.718 48.6 364.852V361.452C48.6 357.586 45.466 354.452 41.6 354.452H37.35C34.65 354.452 33.3 352.952 33.3 349.952V306.002C33.3 299.252 28.65 294.002 21.6 294.002H20.25C19.6701 294.002 19.2 293.532 19.2 292.952V292.952C19.2 292.372 19.6701 291.902 20.25 291.902H21.6C28.65 291.902 33.3 286.652 33.3 279.902V235.952C33.3 232.952 34.65 231.452 37.35 231.452H41.6C45.466 231.452 48.6 228.318 48.6 224.452V221.052C48.6 217.186 45.466 214.052 41.6 214.052H29.7C20.7 214.052 14.4 220.352 14.4 229.352V278.402C14.4 281.252 13.05 282.752 10.35 282.752H7Z" fill="#DF5F17"/> 
</svg>
