<svg width="447" height="738" viewBox="0 0 447 738" fill="none" xmlns="http://www.w3.org/2000/svg">

<!-- code  -->
<path d="M214.751 393.529C214.751 396.531 216.665 399.199 219.509 400.161L268.509 416.727C273.047 418.262 277.751 414.887 277.751 410.096V407.033C277.751 403.955 275.739 401.238 272.795 400.339L234.342 388.596C233.575 388.362 233.051 387.654 233.051 386.852V386.852C233.051 386.05 233.575 385.342 234.342 385.108L272.795 373.365C275.739 372.466 277.751 369.749 277.751 366.67V363.608C277.751 358.817 273.047 355.442 268.509 356.977L219.509 373.543C216.665 374.505 214.751 377.173 214.751 380.175V393.529Z" fill="#CD6ABD"/>
<path d="M347.946 334.352C344.917 334.352 342.232 336.299 341.292 339.178L301.765 460.178C300.287 464.703 303.659 469.352 308.419 469.352H312.591C315.619 469.352 318.304 467.405 319.245 464.526L358.771 343.526C360.25 339.001 356.878 334.352 352.118 334.352H347.946Z" fill="#CD6ABD"/>
<path d="M441.596 400.161C444.44 399.199 446.354 396.531 446.354 393.529V380.174C446.354 377.173 444.44 374.505 441.596 373.543L392.596 356.977C388.058 355.442 383.354 358.817 383.354 363.608V366.67C383.354 369.749 385.366 372.466 388.31 373.365L426.763 385.108C427.53 385.342 428.054 386.05 428.054 386.852V386.852C428.054 387.654 427.53 388.362 426.763 388.596L388.31 400.339C385.366 401.238 383.354 403.955 383.354 407.033V410.096C383.354 414.887 388.058 418.262 392.596 416.727L441.596 400.161Z" fill="#CD6ABD"/>
</svg>
