<svg width="447" height="738" viewBox="0 0 447 738" fill="none" xmlns="http://www.w3.org/2000/svg">
<!--question mark  -->
<path d="M89.7964 79.9501V79.9501C89.7964 82.4353 91.8111 84.45 94.2964 84.45H105.996C107.985 84.45 109.596 82.8383 109.596 80.8501V80.8501C109.596 70.6501 117.696 65.25 128.496 65.25C138.996 65.25 145.896 70.65 145.896 78.75C145.896 86.25 141.096 89.55 132.096 93.6L129.396 94.8C119.946 99 116.346 105.45 116.346 115.65V115.65C116.346 118.632 118.764 121.05 121.746 121.05H132.246C134.4 121.05 136.146 119.304 136.146 117.15V117.15C136.146 112.8 137.346 110.85 140.946 109.2L143.646 108C154.296 103.35 165.696 96.1501 165.696 78.4501V77.85C165.696 59.25 149.796 46.65 128.496 46.65C106.896 46.65 89.7964 59.2501 89.7964 79.9501ZM111.996 141.6C111.996 150 118.146 155.85 126.246 155.85C134.346 155.85 140.496 150 140.496 141.6C140.496 133.2 134.346 127.35 126.246 127.35C118.146 127.35 111.996 133.2 111.996 141.6Z" fill="#71AD98"/>
<path d="M165.696 33.3001V33.3001C165.696 35.7853 167.711 37.8 170.196 37.8H181.896C183.885 37.8 185.496 36.1883 185.496 34.2001V34.2001C185.496 24.0001 193.596 18.6 204.396 18.6C214.896 18.6 221.796 24 221.796 32.1001C221.796 39.6 216.996 42.9 207.996 46.95L205.296 48.1501C195.846 52.3501 192.246 58.8001 192.246 69.0001V69.0001C192.246 71.9824 194.664 74.4001 197.646 74.4001H208.146C210.3 74.4001 212.046 72.654 212.046 70.5001V70.5001C212.046 66.1501 213.246 64.2001 216.846 62.5501L219.546 61.3501C230.196 56.7001 241.596 49.5001 241.596 31.8001V31.2C241.596 12.6 225.696 0 204.396 0C182.796 0 165.696 12.6001 165.696 33.3001ZM187.896 94.9501C187.896 103.35 194.046 109.2 202.146 109.2C210.246 109.2 216.396 103.35 216.396 94.9501C216.396 86.5501 210.246 80.7 202.146 80.7C194.046 80.7 187.896 86.5501 187.896 94.9501Z" fill="#71AD98"/>
<path d="M165.696 33.3001V33.3001C165.696 35.7853 167.711 37.8 170.196 37.8H181.896C183.885 37.8 185.496 36.1883 185.496 34.2001V34.2001C185.496 24.0001 193.596 18.6 204.396 18.6C214.896 18.6 221.796 24 221.796 32.1001C221.796 39.6 216.996 42.9 207.996 46.95L205.296 48.1501C195.846 52.3501 192.246 58.8001 192.246 69.0001V69.0001C192.246 71.9824 194.664 74.4001 197.646 74.4001H208.146C210.3 74.4001 212.046 72.654 212.046 70.5001V70.5001C212.046 66.1501 213.246 64.2001 216.846 62.5501L219.546 61.3501C230.196 56.7001 241.596 49.5001 241.596 31.8001V31.2C241.596 12.6 225.696 0 204.396 0C182.796 0 165.696 12.6001 165.696 33.3001ZM187.896 94.9501C187.896 103.35 194.046 109.2 202.146 109.2C210.246 109.2 216.396 103.35 216.396 94.9501C216.396 86.5501 210.246 80.7 202.146 80.7C194.046 80.7 187.896 86.5501 187.896 94.9501Z" fill="#B2C82D"/>
</svg>
