<svg width="447" height="738" viewBox="0 0 447 738" fill="none" xmlns="http://www.w3.org/2000/svg">

<!-- code  -->
<path d="M214.751 393.529C214.751 396.531 216.665 399.199 219.509 400.161L268.509 416.727C273.047 418.262 277.751 414.887 277.751 410.096V407.033C277.751 403.955 275.739 401.238 272.795 400.339L234.342 388.596C233.575 388.362 233.051 387.654 233.051 386.852V386.852C233.051 386.05 233.575 385.342 234.342 385.108L272.795 373.365C275.739 372.466 277.751 369.749 277.751 366.67V363.608C277.751 358.817 273.047 355.442 268.509 356.977L219.509 373.543C216.665 374.505 214.751 377.173 214.751 380.175V393.529Z" fill="#CD6ABD"/>
<path d="M347.946 334.352C344.917 334.352 342.232 336.299 341.292 339.178L301.765 460.178C300.287 464.703 303.659 469.352 308.419 469.352H312.591C315.619 469.352 318.304 467.405 319.245 464.526L358.771 343.526C360.25 339.001 356.878 334.352 352.118 334.352H347.946Z" fill="#CD6ABD"/>
<path d="M441.596 400.161C444.44 399.199 446.354 396.531 446.354 393.529V380.174C446.354 377.173 444.44 374.505 441.596 373.543L392.596 356.977C388.058 355.442 383.354 358.817 383.354 363.608V366.67C383.354 369.749 385.366 372.466 388.31 373.365L426.763 385.108C427.53 385.342 428.054 386.05 428.054 386.852V386.852C428.054 387.654 427.53 388.362 426.763 388.596L388.31 400.339C385.366 401.238 383.354 403.955 383.354 407.033V410.096C383.354 414.887 388.058 418.262 392.596 416.727L441.596 400.161Z" fill="#CD6ABD"/>
<!-- semi colon lower bracket   -->
<path d="M398.354 655.395C398.354 651.529 395.22 648.395 391.354 648.395H388.005C385.305 648.395 383.955 646.895 383.955 644.045V594.995C383.955 585.995 377.655 579.695 368.655 579.695H356.755C352.889 579.695 349.755 582.829 349.755 586.695V590.095C349.755 593.961 352.889 597.095 356.755 597.095H361.005C363.705 597.095 365.055 598.595 365.055 601.595V645.545C365.055 652.295 369.705 657.545 376.755 657.545H378.105C378.684 657.545 379.155 658.015 379.155 658.595V658.595C379.155 659.175 378.684 659.645 378.105 659.645H376.755C369.705 659.645 365.055 664.895 365.055 671.645V715.595C365.055 718.595 363.705 720.095 361.005 720.095H356.755C352.889 720.095 349.755 723.229 349.755 727.095V730.495C349.755 734.361 352.889 737.495 356.755 737.495H368.655C377.655 737.495 383.955 731.195 383.955 722.195V673.145C383.955 670.295 385.305 668.795 388.005 668.795H391.354C395.22 668.795 398.354 665.661 398.354 661.795V655.395Z" fill="#DF5F17"/>
<path d="M282.013 633.096C282.013 641.496 288.163 647.345 296.263 647.345C304.363 647.345 310.513 641.496 310.513 633.096C310.513 624.696 304.363 618.846 296.263 618.846C288.163 618.846 282.013 624.696 282.013 633.096ZM282.013 683.345C282.013 691.295 288.163 696.695 295.963 696.695V696.695C297.422 696.695 298.813 697.808 298.813 699.267V701.195C298.813 704.045 297.613 705.395 294.463 705.395H288.013C285.196 705.395 282.913 707.678 282.913 710.495V710.495C282.913 713.312 285.196 715.595 288.013 715.595H297.163C304.813 715.595 310.513 709.745 310.513 702.095V683.045C310.513 674.795 304.363 668.945 296.263 668.945C288.163 668.945 282.013 674.795 282.013 683.345Z" fill="#76ADFF"/>
<!--triple dot and upper bracket  -->
<path d="M66.7784 325.052C66.7784 333.452 72.9284 339.302 81.0284 339.302C89.1284 339.302 95.2784 333.452 95.2784 325.052C95.2784 316.652 89.1284 310.802 81.0284 310.802C72.9284 310.802 66.7784 316.652 66.7784 325.052Z" fill="#F5B40D"/>
<path d="M109.112 325.052C109.112 333.452 115.262 339.302 123.362 339.302C131.462 339.302 137.612 333.452 137.612 325.052C137.612 316.652 131.462 310.802 123.362 310.802C115.262 310.802 109.112 316.652 109.112 325.052Z" fill="#F5B40D"/>
<path d="M151.446 325.052C151.446 333.452 157.596 339.302 165.696 339.302C173.796 339.302 179.946 333.452 179.946 325.052C179.946 316.652 173.796 310.802 165.696 310.802C157.596 310.802 151.446 316.652 151.446 325.052Z" fill="#F5B40D"/>
<path d="M7 282.752C3.13401 282.752 0 285.886 0 289.752V296.152C0 300.018 3.13401 303.152 7 303.152H10.35C13.05 303.152 14.4 304.652 14.4 307.502V356.552C14.4 365.552 20.7 371.852 29.7 371.852H41.6C45.466 371.852 48.6 368.718 48.6 364.852V361.452C48.6 357.586 45.466 354.452 41.6 354.452H37.35C34.65 354.452 33.3 352.952 33.3 349.952V306.002C33.3 299.252 28.65 294.002 21.6 294.002H20.25C19.6701 294.002 19.2 293.532 19.2 292.952V292.952C19.2 292.372 19.6701 291.902 20.25 291.902H21.6C28.65 291.902 33.3 286.652 33.3 279.902V235.952C33.3 232.952 34.65 231.452 37.35 231.452H41.6C45.466 231.452 48.6 228.318 48.6 224.452V221.052C48.6 217.186 45.466 214.052 41.6 214.052H29.7C20.7 214.052 14.4 220.352 14.4 229.352V278.402C14.4 281.252 13.05 282.752 10.35 282.752H7Z" fill="#DF5F17"/> 
<!--question mark  -->
<path d="M89.7964 79.9501V79.9501C89.7964 82.4353 91.8111 84.45 94.2964 84.45H105.996C107.985 84.45 109.596 82.8383 109.596 80.8501V80.8501C109.596 70.6501 117.696 65.25 128.496 65.25C138.996 65.25 145.896 70.65 145.896 78.75C145.896 86.25 141.096 89.55 132.096 93.6L129.396 94.8C119.946 99 116.346 105.45 116.346 115.65V115.65C116.346 118.632 118.764 121.05 121.746 121.05H132.246C134.4 121.05 136.146 119.304 136.146 117.15V117.15C136.146 112.8 137.346 110.85 140.946 109.2L143.646 108C154.296 103.35 165.696 96.1501 165.696 78.4501V77.85C165.696 59.25 149.796 46.65 128.496 46.65C106.896 46.65 89.7964 59.2501 89.7964 79.9501ZM111.996 141.6C111.996 150 118.146 155.85 126.246 155.85C134.346 155.85 140.496 150 140.496 141.6C140.496 133.2 134.346 127.35 126.246 127.35C118.146 127.35 111.996 133.2 111.996 141.6Z" fill="#71AD98"/>
<path d="M165.696 33.3001V33.3001C165.696 35.7853 167.711 37.8 170.196 37.8H181.896C183.885 37.8 185.496 36.1883 185.496 34.2001V34.2001C185.496 24.0001 193.596 18.6 204.396 18.6C214.896 18.6 221.796 24 221.796 32.1001C221.796 39.6 216.996 42.9 207.996 46.95L205.296 48.1501C195.846 52.3501 192.246 58.8001 192.246 69.0001V69.0001C192.246 71.9824 194.664 74.4001 197.646 74.4001H208.146C210.3 74.4001 212.046 72.654 212.046 70.5001V70.5001C212.046 66.1501 213.246 64.2001 216.846 62.5501L219.546 61.3501C230.196 56.7001 241.596 49.5001 241.596 31.8001V31.2C241.596 12.6 225.696 0 204.396 0C182.796 0 165.696 12.6001 165.696 33.3001ZM187.896 94.9501C187.896 103.35 194.046 109.2 202.146 109.2C210.246 109.2 216.396 103.35 216.396 94.9501C216.396 86.5501 210.246 80.7 202.146 80.7C194.046 80.7 187.896 86.5501 187.896 94.9501Z" fill="#71AD98"/>
<path d="M165.696 33.3001V33.3001C165.696 35.7853 167.711 37.8 170.196 37.8H181.896C183.885 37.8 185.496 36.1883 185.496 34.2001V34.2001C185.496 24.0001 193.596 18.6 204.396 18.6C214.896 18.6 221.796 24 221.796 32.1001C221.796 39.6 216.996 42.9 207.996 46.95L205.296 48.1501C195.846 52.3501 192.246 58.8001 192.246 69.0001V69.0001C192.246 71.9824 194.664 74.4001 197.646 74.4001H208.146C210.3 74.4001 212.046 72.654 212.046 70.5001V70.5001C212.046 66.1501 213.246 64.2001 216.846 62.5501L219.546 61.3501C230.196 56.7001 241.596 49.5001 241.596 31.8001V31.2C241.596 12.6 225.696 0 204.396 0C182.796 0 165.696 12.6001 165.696 33.3001ZM187.896 94.9501C187.896 103.35 194.046 109.2 202.146 109.2C210.246 109.2 216.396 103.35 216.396 94.9501C216.396 86.5501 210.246 80.7 202.146 80.7C194.046 80.7 187.896 86.5501 187.896 94.9501Z" fill="#B2C82D"/>
</svg>
