<svg width="525" height="413" viewBox="0 0 525 413" fill="none" xmlns="http://www.w3.org/2000/svg">
    <ellipse cx="257" cy="348.676" rx="256.746" ry="63.3689" fill="#AEC1E6" />
    <path d="M496.931 188.831C481.705 188.831 469.362 176.488 469.362 161.262C469.362 146.036 481.705 133.693 496.931 133.693C512.157 133.693 524.5 146.036 524.5 161.262C524.5 176.488 512.157 188.831 496.931 188.831Z" fill="#FFA7A7" />
    <path d="M496.931 188.831C481.705 188.831 469.362 176.488 469.362 161.262C469.362 146.036 481.705 133.693 496.931 133.693C512.157 133.693 524.5 146.036 524.5 161.262C524.5 176.488 512.157 188.831 496.931 188.831Z" fill="#CD7434" />
    <path d="M496.931 295.582C481.705 295.582 469.362 283.239 469.362 268.013C469.362 252.787 481.705 240.444 496.931 240.444C512.157 240.444 524.5 252.787 524.5 268.013C524.5 283.239 512.157 295.582 496.931 295.582Z" fill="#FFA7A7" />
    <path d="M496.931 295.582C481.705 295.582 469.362 283.239 469.362 268.013C469.362 252.787 481.705 240.444 496.931 240.444C512.157 240.444 524.5 252.787 524.5 268.013C524.5 283.239 512.157 295.582 496.931 295.582Z" fill="#CD7434" />
    <path d="M496.931 176.523C488.503 176.523 481.671 169.69 481.671 161.263C481.671 152.835 488.503 146.002 496.931 146.002C505.359 146.002 512.191 152.835 512.191 161.263C512.191 169.69 505.359 176.523 496.931 176.523Z" fill="#FFA7A7" />
    <path d="M496.931 176.523C488.503 176.523 481.671 169.69 481.671 161.263C481.671 152.835 488.503 146.002 496.931 146.002C505.359 146.002 512.191 152.835 512.191 161.263C512.191 169.69 505.359 176.523 496.931 176.523Z" fill="#FAB7B7" />
    <path d="M496.931 283.274C488.503 283.274 481.671 276.441 481.671 268.014C481.671 259.586 488.503 252.753 496.931 252.753C505.359 252.753 512.191 259.586 512.191 268.014C512.191 276.441 505.359 283.274 496.931 283.274Z" fill="#FFA7A7" />
    <path d="M496.931 283.274C488.503 283.274 481.671 276.441 481.671 268.014C481.671 259.586 488.503 252.753 496.931 252.753C505.359 252.753 512.191 259.586 512.191 268.014C512.191 276.441 505.359 283.274 496.931 283.274Z" fill="#FAB7B7" />
    <path d="M219.88 387.239C259.2 387.239 279.273 389.811 315.601 381.129C372.156 361.086 384.21 335.741 412.014 319.7C439.817 303.659 455.558 305.689 490.584 277.757C513.376 253.373 519.299 237.178 519.299 214.493C519.299 191.807 513.376 174.412 490.584 151.398C449.78 117.744 431.908 126.179 412.014 109.285C394.386 94.3168 358.255 59.3437 315.601 49.1503C279.273 40.469 261.466 43.7989 222.146 43.7989L219.88 214.493L219.88 387.239Z" fill="#CD7434" />
    <path d="M445.487 159.737C437.177 159.737 430.439 153 430.439 144.689C430.439 136.379 437.177 129.642 445.487 129.642C453.798 129.642 460.535 136.379 460.535 144.689C460.535 153 453.798 159.737 445.487 159.737Z" fill="#FFA7A7" />
    <path d="M445.487 159.737C437.177 159.737 430.439 153 430.439 144.689C430.439 136.379 437.177 129.642 445.487 129.642C453.798 129.642 460.535 136.379 460.535 144.689C460.535 153 453.798 159.737 445.487 159.737Z" fill="#EE8C8C" />
    <path d="M445.487 159.737C437.177 159.737 430.439 153 430.439 144.689C430.439 136.379 437.177 129.642 445.487 129.642C453.798 129.642 460.535 136.379 460.535 144.689C460.535 153 453.798 159.737 445.487 159.737Z" fill="#EE8C8C" />
    <path d="M445.487 260.563C437.177 260.563 430.439 253.826 430.439 245.515C430.439 237.204 437.177 230.467 445.487 230.467C453.798 230.467 460.535 237.204 460.535 245.515C460.535 253.826 453.798 260.563 445.487 260.563Z" fill="#FFA7A7" />
    <path d="M445.487 260.563C437.177 260.563 430.439 253.826 430.439 245.515C430.439 237.204 437.177 230.467 445.487 230.467C453.798 230.467 460.535 237.204 460.535 245.515C460.535 253.826 453.798 260.563 445.487 260.563Z" fill="#EE8C8C" />
    <path d="M445.487 260.563C437.177 260.563 430.439 253.826 430.439 245.515C430.439 237.204 437.177 230.467 445.487 230.467C453.798 230.467 460.535 237.204 460.535 245.515C460.535 253.826 453.798 260.563 445.487 260.563Z" fill="#EE8C8C" />
    <path fill-rule="evenodd" clip-rule="evenodd" d="M439.494 198.479C438.546 198.479 437.607 198.666 436.731 199.029C435.856 199.392 435.06 199.924 434.389 200.594C433.719 201.264 433.187 202.06 432.824 202.936C432.462 203.812 432.275 204.751 432.275 205.699C432.275 206.647 432.462 207.586 432.824 208.461C433.187 209.337 433.719 210.133 434.389 210.804C435.06 211.474 435.856 212.006 436.731 212.369C437.607 212.731 438.546 212.918 439.494 212.918L439.494 216.06C438.134 216.06 436.786 215.792 435.529 215.271C434.272 214.75 433.13 213.987 432.168 213.025C431.206 212.063 430.443 210.921 429.922 209.664C429.401 208.407 429.133 207.059 429.133 205.699C429.133 204.338 429.401 202.991 429.922 201.734C430.443 200.477 431.206 199.335 432.168 198.373C433.13 197.41 434.272 196.647 435.529 196.127C436.786 195.606 438.134 195.338 439.494 195.338L439.494 198.479Z" fill="black" />
    <path fill-rule="evenodd" clip-rule="evenodd" d="M450.412 216.059L435.808 216.057L435.809 212.915L450.413 212.918L450.412 216.059Z" fill="black" />
    <path d="M108.319 66.5348C129.684 44.295 165.032 43.5859 187.272 64.9509C209.512 86.316 210.221 121.665 188.856 143.904L136.312 197.952C114.947 220.191 79.598 220.9 57.3583 199.535C35.1186 178.17 34.4095 142.822 55.7745 120.582L108.319 66.5348Z" fill="#CD7434" />
    <path d="M108.319 66.5348C129.684 44.295 165.032 43.5859 187.272 64.9509C209.512 86.316 210.221 121.665 188.856 143.904L136.312 197.952C114.947 220.191 79.598 220.9 57.3583 199.535C35.1186 178.17 34.4095 142.822 55.7745 120.582L108.319 66.5348Z" fill="#CD7434" />
    <path d="M108.319 66.5348C129.684 44.295 165.032 43.5859 187.272 64.9509C209.512 86.316 210.221 121.665 188.856 143.904L136.312 197.952C114.947 220.191 79.598 220.9 57.3583 199.535C35.1186 178.17 34.4095 142.822 55.7745 120.582L108.319 66.5348Z" fill="#CD7434" />
    <path d="M108.319 66.5348C129.684 44.295 165.032 43.5859 187.272 64.9509C209.512 86.316 210.221 121.665 188.856 143.904L136.312 197.952C114.947 220.191 79.598 220.9 57.3583 199.535C35.1186 178.17 34.4095 142.822 55.7745 120.582L108.319 66.5348Z" fill="#CD7434" />
    <path d="M129.069 222.365C159.908 222.365 184.908 247.365 184.908 278.205C184.908 309.044 159.908 334.045 129.068 334.045L76.0835 334.045C45.2441 334.045 20.2438 309.044 20.2438 278.205C20.2438 247.365 45.2441 222.365 76.0835 222.365L129.069 222.365Z" fill="#CD7434" />
    <path d="M129.069 222.365C159.908 222.365 184.908 247.365 184.908 278.205C184.908 309.044 159.908 334.045 129.068 334.045L76.0835 334.045C45.2441 334.045 20.2438 309.044 20.2438 278.205C20.2438 247.365 45.2441 222.365 76.0835 222.365L129.069 222.365Z" fill="#CD7434" />
    <path d="M129.069 222.365C159.908 222.365 184.908 247.365 184.908 278.205C184.908 309.044 159.908 334.045 129.068 334.045L76.0835 334.045C45.2441 334.045 20.2438 309.044 20.2438 278.205C20.2438 247.365 45.2441 222.365 76.0835 222.365L129.069 222.365Z" fill="#CD7434" />
    <path d="M129.069 222.365C159.908 222.365 184.908 247.365 184.908 278.205C184.908 309.044 159.908 334.045 129.068 334.045L76.0835 334.045C45.2441 334.045 20.2438 309.044 20.2438 278.205C20.2438 247.365 45.2441 222.365 76.0835 222.365L129.069 222.365Z" fill="#CD7434" />
    <path d="M263.85 41.8198C329.313 41.8198 395.635 99.4873 395.635 170.624L395.635 258.508C395.635 329.645 329.313 387.312 263.85 387.312L232.015 387.312C166.551 387.312 113.483 329.645 113.483 258.508L113.483 170.624C113.483 99.4873 166.552 41.8198 232.015 41.8198L263.85 41.8198Z" fill="#CD7434" />
    <path d="M257.506 48.5806C324.193 48.5806 381.195 116.71 381.195 179.456C381.195 242.203 324.193 304.628 257.506 304.628L231.003 304.628C178.952 304.628 136.757 264.926 136.757 215.951L136.757 137.258C136.757 88.2826 178.952 48.5806 231.003 48.5806L257.506 48.5806Z" fill="#E6C29D" />
    <path d="M257.506 48.5806C324.193 48.5806 381.195 116.71 381.195 179.456C381.195 242.203 324.193 304.628 257.506 304.628L231.003 304.628C178.952 304.628 136.757 264.926 136.757 215.951L136.757 137.258C136.757 88.2826 178.952 48.5806 231.003 48.5806L257.506 48.5806Z" fill="url(#paint0_linear_3134_26908)" fill-opacity="0.2" />
    <path d="M438.904 221.513C424.197 221.513 412.275 209.59 412.275 194.884C412.275 180.177 424.197 168.254 438.904 168.254C453.611 168.254 465.533 180.177 465.533 194.884C465.533 209.59 453.611 221.513 438.904 221.513Z" fill="#E5C29D" />
    <path d="M455.801 205.466C454.41 205.466 453.033 205.192 451.749 204.66C450.464 204.128 449.297 203.348 448.314 202.365C447.33 201.382 446.55 200.214 446.018 198.93C445.486 197.645 445.212 196.268 445.212 194.878C445.212 193.487 445.486 192.11 446.018 190.826C446.55 189.541 447.33 188.374 448.314 187.39C449.297 186.407 450.464 185.627 451.749 185.095C453.033 184.563 454.41 184.289 455.801 184.289L455.801 194.878L455.801 205.466Z" fill="black" />
    <path fill-rule="evenodd" clip-rule="evenodd" d="M450.882 196.477L435.956 196.474L435.957 193.264L450.882 193.267L450.882 196.477Z" fill="black" />
    <path d="M303.224 34.7691C313.237 15.7371 336.782 8.42523 355.814 18.4376C374.846 28.45 382.158 51.9952 372.146 71.0272L331.739 147.835C321.726 166.867 298.181 174.179 279.149 164.166C260.117 154.154 252.805 130.609 262.817 111.577L303.224 34.7691Z" fill="#CD7434" />
    <path d="M303.224 34.7691C313.237 15.7371 336.782 8.42523 355.814 18.4376C374.846 28.45 382.158 51.9952 372.146 71.0272L331.739 147.835C321.726 166.867 298.181 174.179 279.149 164.166C260.117 154.154 252.805 130.609 262.817 111.577L303.224 34.7691Z" fill="#CD7434" />
    <path d="M303.224 34.7691C313.237 15.7371 336.782 8.42523 355.814 18.4376C374.846 28.45 382.158 51.9952 372.146 71.0272L331.739 147.835C321.726 166.867 298.181 174.179 279.149 164.166C260.117 154.154 252.805 130.609 262.817 111.577L303.224 34.7691Z" fill="#CD7434" />
    <path d="M303.224 34.7691C313.237 15.7371 336.782 8.42523 355.814 18.4376C374.846 28.45 382.158 51.9952 372.146 71.0272L331.739 147.835C321.726 166.867 298.181 174.179 279.149 164.166C260.117 154.154 252.805 130.609 262.817 111.577L303.224 34.7691Z" fill="#B5551F" />
    <mask id="mask0_3134_26908" style="mask-type:alpha" maskUnits="userSpaceOnUse" x="258" y="13" width="119" height="156">
        <path d="M303.224 34.7691C313.237 15.7371 336.782 8.42523 355.814 18.4376C374.846 28.45 382.158 51.9952 372.146 71.0272L331.739 147.835C321.726 166.867 298.181 174.179 279.149 164.166C260.117 154.154 252.805 130.609 262.817 111.577L303.224 34.7691Z" fill="#703514" />
        <path d="M303.224 34.7691C313.237 15.7371 336.782 8.42523 355.814 18.4376C374.846 28.45 382.158 51.9952 372.146 71.0272L331.739 147.835C321.726 166.867 298.181 174.179 279.149 164.166C260.117 154.154 252.805 130.609 262.817 111.577L303.224 34.7691Z" fill="#703514" />
        <path d="M303.224 34.7691C313.237 15.7371 336.782 8.42523 355.814 18.4376C374.846 28.45 382.158 51.9952 372.146 71.0272L331.739 147.835C321.726 166.867 298.181 174.179 279.149 164.166C260.117 154.154 252.805 130.609 262.817 111.577L303.224 34.7691Z" fill="#703514" />
        <path d="M303.224 34.7691C313.237 15.7371 336.782 8.42523 355.814 18.4376C374.846 28.45 382.158 51.9952 372.146 71.0272L331.739 147.835C321.726 166.867 298.181 174.179 279.149 164.166C260.117 154.154 252.805 130.609 262.817 111.577L303.224 34.7691Z" fill="#582508" />
    </mask>
    <g mask="url(#mask0_3134_26908)">
        <path fill-rule="evenodd" clip-rule="evenodd" d="M266.235 135.151C266.396 136.003 265.836 136.825 264.984 136.986L258.811 138.155C257.958 138.317 257.136 137.757 256.975 136.904C256.814 136.052 257.374 135.23 258.226 135.069L264.399 133.899C265.252 133.738 266.074 134.298 266.235 135.151Z" fill="#F59F9F" />
        <path fill-rule="evenodd" clip-rule="evenodd" d="M273.47 150.53C274.026 151.196 273.936 152.187 273.27 152.742L268.445 156.767C267.779 157.322 266.788 157.233 266.233 156.566C265.677 155.9 265.767 154.91 266.433 154.354L271.258 150.33C271.924 149.774 272.915 149.864 273.47 150.53Z" fill="#F59F9F" />
        <path fill-rule="evenodd" clip-rule="evenodd" d="M288.075 159.986C288.842 160.39 289.137 161.34 288.734 162.108L285.808 167.668C285.404 168.436 284.454 168.731 283.687 168.327C282.919 167.923 282.624 166.974 283.028 166.206L285.953 160.645C286.357 159.878 287.307 159.583 288.075 159.986Z" fill="#F59F9F" />
    </g>
    <path d="M287.493 309.436C308.998 309.436 326.432 326.869 326.432 348.374C326.432 369.879 308.998 387.312 287.493 387.312L127.971 387.312C106.465 387.312 89.0322 369.879 89.0322 348.374C89.0322 326.869 106.465 309.436 127.971 309.436L287.493 309.436Z" fill="#CD7434" />
    <path d="M287.493 309.436C308.998 309.436 326.432 326.869 326.432 348.374C326.432 369.879 308.998 387.312 287.493 387.312L127.971 387.312C106.465 387.312 89.0322 369.879 89.0322 348.374C89.0322 326.869 106.465 309.436 127.971 309.436L287.493 309.436Z" fill="#CD7434" />
    <path d="M287.493 309.436C308.998 309.436 326.432 326.869 326.432 348.374C326.432 369.879 308.998 387.312 287.493 387.312L127.971 387.312C106.465 387.312 89.0322 369.879 89.0322 348.374C89.0322 326.869 106.465 309.436 127.971 309.436L287.493 309.436Z" fill="#CD7434" />
    <path d="M287.493 309.436C308.998 309.436 326.432 326.869 326.432 348.374C326.432 369.879 308.998 387.312 287.493 387.312L127.971 387.312C106.465 387.312 89.0322 369.879 89.0322 348.374C89.0322 326.869 106.465 309.436 127.971 309.436L287.493 309.436Z" fill="#B5551F" />
    <path fill-rule="evenodd" clip-rule="evenodd" d="M471.021 229.418C469.771 229.418 468.533 229.664 467.379 230.143C466.224 230.621 465.174 231.322 464.29 232.206C463.406 233.09 462.705 234.139 462.227 235.294C461.748 236.449 461.502 237.687 461.502 238.937C461.502 240.187 461.748 241.425 462.227 242.58C462.705 243.735 463.406 244.785 464.29 245.669C465.174 246.553 466.224 247.254 467.379 247.732C468.533 248.211 469.771 248.457 471.021 248.457L471.021 252.599C469.227 252.599 467.451 252.246 465.793 251.559C464.136 250.873 462.63 249.866 461.361 248.598C460.092 247.329 459.086 245.823 458.399 244.166C457.713 242.508 457.36 240.731 457.36 238.937C457.36 237.143 457.713 235.367 458.399 233.709C459.086 232.052 460.092 230.546 461.361 229.277C462.63 228.008 464.136 227.002 465.793 226.315C467.451 225.629 469.227 225.275 471.021 225.275L471.021 229.418Z" fill="black" />
    <path fill-rule="evenodd" clip-rule="evenodd" d="M469.199 148.812C467.949 148.812 466.711 149.059 465.556 149.537C464.401 150.015 463.352 150.717 462.468 151.601C461.584 152.485 460.883 153.534 460.404 154.689C459.926 155.844 459.68 157.082 459.68 158.332C459.68 159.582 459.926 160.82 460.404 161.975C460.883 163.13 461.584 164.179 462.468 165.063C463.352 165.947 464.401 166.648 465.556 167.127C466.711 167.605 467.949 167.851 469.199 167.851L469.199 171.994C467.405 171.994 465.629 171.64 463.971 170.954C462.313 170.267 460.807 169.261 459.539 167.992C458.27 166.724 457.264 165.218 456.577 163.56C455.891 161.903 455.537 160.126 455.537 158.332C455.537 156.538 455.891 154.761 456.577 153.104C457.264 151.446 458.27 149.94 459.539 148.671C460.807 147.403 462.313 146.396 463.971 145.71C465.629 145.023 467.405 144.67 469.199 144.67L469.199 148.812Z" fill="black" />
    <circle cx="428.604" cy="195.395" r="6.74647" fill="#8C2727" stroke="black" stroke-width="7" />
    <path d="M435.363 224.419C435.973 232.678 420.778 234.132 422.308 223.058C423.031 217.834 426.323 214.302 427.871 202.418C428.379 202.475 428.806 202.46 429.326 202.418C429.063 206.678 435.066 220.405 435.363 224.419Z" fill="#639FA7" />
    <defs>
        <linearGradient id="paint0_linear_3134_26908" x1="381.195" y1="176.604" x2="136.757" y2="176.604" gradientUnits="userSpaceOnUse">
            <stop stop-color="white" />
            <stop offset="1" stop-color="#F5F5F5" stop-opacity="0" />
        </linearGradient>
    </defs>
</svg>
